# xmcd
#
# Track frame offsets:
#	150
#	14300
#	27477
#	40035
#	51715
#	65185
#	75607
#	89170
#	101417
#	119290
#
# Disc length: 1757 seconds
#
# Revision: 1
# Processed by: cddbd v1.5.1PL2 Copyright (c) Steve Scherf et al.
# Submitted via: audiograbber 1.83.01
#
DISCID=8906db0a
DTITLE=Patti Page - Patti Page--A Touch Of Country
DYEAR=1993
DGENRE=Country
TTITLE0=Less Than a Song
TTITLE1=The Trees in Philadelphia
TTITLE2=I Can Help
TTITLE3=Did He Ask About Me?
TTITLE4=I May Not Be Loving You
TTITLE5=Pour Your Lovin' on Me
TTITLE6=Please Don't Tell Me How the Story Ends
TTITLE7=Rescue Me
TTITLE8=Whoever Finds This I Love You
TTITLE9=Laughter in the Rain
EXTD=
EXTT0=
EXTT1=
EXTT2=
EXTT3=
EXTT4=
EXTT5=
EXTT6=
EXTT7=
EXTT8=
EXTT9=
PLAYORDER=
